<?xml version="1.0" encoding="utf-8"?>
<!-- Svg Vector Icons : http://www.onlinewebfonts.com/icon -->
<!DOCTYPE svg PUBLIC "-//W3C//DTD SVG 1.1//EN" "http://www.w3.org/Graphics/SVG/1.1/DTD/svg11.dtd">
<svg version="1.1" xmlns="http://www.w3.org/2000/svg" xmlns:xlink="http://www.w3.org/1999/xlink" x="0px" y="0px" viewBox="0 0 1000 1000" enable-background="new 0 0 1000 1000" xml:space="preserve">
<metadata> Svg Vector Icons : http://www.onlinewebfonts.com/icon </metadata>
<g><path d="M929.7,735.2c8.9-16,16.6-32.6,23.8-49.8C977.8,626.7,990,564.2,990,500c0-270-219.7-489.7-489.7-489.7C230.2,10.3,10,230,10,500c0,270,219.7,489.7,489.7,489.7c26.6,0,52.6-2.2,78.6-6.1c55.3-8.9,107.9-27.1,156.6-53.7c25.5,31.5,64.2,52,107.9,52c76.4,0,138.3-62,138.3-138.3C981.1,799.4,961.2,760.1,929.7,735.2z M725.5,915.6c-46.5,25.5-96.8,42.6-149.4,50.9c-24.9,3.9-50.4,6.1-75.8,6.1c-260.6,0-473.1-212.5-473.1-473.1c0-260.6,212.5-473.1,473.1-473.1c260.6,0,473.1,212.5,473.1,473.1c0,62-11.6,122.3-34.9,179.3c-6.6,15.5-13.8,31-22.1,46.5c-21-13.3-45.9-20.5-73-20.5c-76.4,0-138.3,62-138.3,138.3C704.5,869.6,712.2,894.5,725.5,915.6z M941.9,857.5h-78v87.4h-40.9v-87.4h-79.1v-38.2h78.6v-78.6h40.9v78.6h78.6V857.5z"/><path d="M623.1,382.1c0,73-55.3,132.8-122.8,132.8c-68.1,0-122.8-59.2-122.8-132.8c0-73,55.3-132.8,122.8-132.8C567.8,249.9,623.1,309.1,623.1,382.1L623.1,382.1L623.1,382.1z M591,496.1c-22.7,26.6-54.8,38.7-90.8,38.7c-36,0-68.6-12.2-90.8-38.7c-86.9,36-148.3,121.2-148.3,221.3c0,2.8,0,5.5,0,7.7h478.1c0-2.8,0-5.5,0-7.7C739.3,617.9,677.9,532.1,591,496.1L591,496.1z"/></g>
</svg>